<svg version="1" xmlns="http://www.w3.org/2000/svg" width="1365.333" height="1365.333" viewBox="0 0 1024.000000 1024.000000"><path d="M0 512v512h1024V0H0v512zM244.3 25.4c1.8.7 4.9 3.2 6.8 5.4 1.9 2.2 41.7 64.7 88.6 138.9 97.5 154.2 157.7 249.3 165 260.6l5.1 7.9 4-5.9c2.1-3.2 17.6-27.4 34.4-53.8 35.6-56 152.4-240.1 193.2-304.4 24.7-39 28.6-44.7 32.5-47.2l4.5-2.9h41.4c37.2 0 41.7.2 44.3 1.7 6.4 3.8 5.9-22.5 5.9 317.5 0 292.5-.1 309.5-1.8 312.7-1 2.1-3.3 4.3-5.7 5.5-3.8 2-5.6 2.1-38.5 2.1-32.7 0-34.7-.1-37.9-2-1.9-1.1-4.3-3.3-5.5-4.8l-2.1-2.8-.5-239.1-.5-239.1-6.4 9.9c-3.5 5.4-55.6 87.2-115.8 181.7-60.1 94.5-110.3 173.2-111.5 174.8-1.2 1.6-4.7 4.2-7.7 5.6-5.1 2.5-6.6 2.8-21.1 3.1-19 .5-28-.7-33.4-4.5-4-2.8-5.3-4.7-32.5-47.3-77.6-121.5-190.8-298.5-198-309.5l-9.1-13.9-.2 238.4c-.3 237.5-.3 238.5-2.3 242-1.2 1.9-3.8 4.4-6 5.5-3.8 1.9-6 2-36.5 2-17.9 0-34.1-.3-36.1-.8-2.1-.4-4.9-1.7-6.3-2.8l-2.6-2V28l3.3-2c3.1-1.9 5.1-2 44.5-2 32.7 0 41.9.3 44.5 1.4zm-71.1 746.7l.3 64 4.2-6.3c10.8-16.4 30-30.6 49.5-36.6 10.1-3.1 24.7-4.5 35.6-3.2 31.2 3.5 49 23.5 54.7 61.5 1.2 8.1 1.5 23.1 1.5 79.7v69.8h-35v-58.8c0-58.7-.7-74.6-3.5-85.7-4-15.3-11.9-26.1-22.8-31.1-5-2.3-8-2.9-15.2-3.2-10.9-.5-17.6.9-28 5.7-15.5 7.2-28.3 20-36.3 36l-4.7 9.4-.3 63.9-.2 63.8h-35V708h35l.2 64.1zM918 826.2c0 65.1.5 122.4.9 127.4 1.5 15.4 4.9 18.9 18.3 18.6 6.3-.1 19.4-2.6 25.1-4.8 1.2-.4 2 2.3 4.1 13.3 1.4 7.6 2.6 14.4 2.6 14.9 0 1.3-11.1 4.7-22.5 7-11.3 2.3-27.5 2.3-35 0-12-3.6-21-11.7-25.7-23.3l-2.3-5.8-.3-132.8L883 708h35v118.2zm-500.8-68.5l.3 34.8 23.3.3 23.2.2v28h-47.1l.3 67.2c.3 67.2.3 67.3 2.5 71.4 3 5.7 7.4 9.1 14.1 11 7.6 2.3 18.3.8 29.5-4.1 4.4-1.9 8.2-3.3 8.3-3.2.3.3 8.4 27.2 8.4 27.9 0 .8-19.8 8.5-26.5 10.2-20.1 5.3-39.8 3.9-52.8-3.7-5.9-3.5-12.4-10.7-15.5-17.5l-2.7-5.7-.3-76.8-.3-76.7H353v-27.9l14.3-.3 14.2-.3.3-34.8.2-34.7h35l.2 34.7zm225.8 34c7.3 1.8 14.9 5.6 20.9 10.3 8.7 6.9 18 22 19.7 32.2.4 2.1.9 3.8 1.3 3.8.3 0 1.9-2.1 3.5-4.7 12.3-19.4 30.8-34.3 49.8-40.1 15.4-4.8 36.4-4.8 49.6-.2 15.5 5.5 27.4 18.7 33.7 37.4 5.8 17.5 6.7 32.5 6.3 107.1l-.3 63-17.7.3-17.8.2v-62.7c0-39.5-.4-66.1-1.1-71.8-2.8-23.3-11.6-37.2-26.7-42.7-5.8-2.1-20.6-2.3-27.7-.4-19 5-36.4 21.6-45.7 43.6l-2.3 5.5-.5 64-.5 64-17.7.3-17.7.2-.4-68.7c-.3-66.8-.4-69-2.5-77.1-4.1-15.4-11.5-25.9-21.5-30.3-7.1-3.1-22.9-3.9-31.3-1.4-20.1 5.8-36.9 22.2-45.8 44.7l-2.6 6.6V1001l-17.7-.2-17.8-.3-.3-103.8L512 793h33v43.3l4.1-6.4c11.5-17.7 31.7-32.6 50.8-37.5 13.9-3.5 31.1-3.8 43.1-.7zM84 978v23H56v-46h28v23z"/></svg>